<svg xmlns="http://www.w3.org/2000/svg" xml:space="preserve" viewBox="0 0 196 160">
  <path d="M179 107V56c0-31-25-56-56-56H56C25 0 0 25 0 56v104h52v-24s10-3 21-3c10 0 21 3 21 3v24h48v-56s1-2 4-2c2 0 3 2 3 2v3c0 26 21 47 47 47v-30c-9 0-17-8-17-17zm-33-35c-5 0-5-6 0-6 4 0 4 6 0 6z" vector-effect="non-scaling-stroke"/>
  <rect width="395.5" height="61.1" x="-198" y="-31" fill="none" rx="0" ry="0" transform="translate(357 190)" vector-effect="non-scaling-stroke"/>
  <rect width="395.5" height="61.1" x="-198" y="-31" fill="none" rx="0" ry="0" transform="translate(211 169)" vector-effect="non-scaling-stroke"/>
</svg>
